<svg xmlns="http://www.w3.org/2000/svg" width="24.008" height="23.753" viewBox="0 0 24.008 23.753">
  <g id="Group_1642" data-name="Group 1642" transform="translate(-58 -174)">
    <circle id="Ellipse_445" data-name="Ellipse 445" cx="10" cy="10" r="10" transform="translate(60 176)" fill="#f8a912"/>
    <g id="Icon" transform="translate(-241.377 -165.833)">
      <path id="Path_1" data-name="Path 1" d="M314.953,345.988l-.1.026-.091.063-9.159,9.077.012.005-.1.07-.07.1-.045.108-.482,2.143-.012.108.019.114.044.1.079.089.089.07.1.045.115.012h.052l.051-.005,2.164-.484.117-.038.089-.07.084-.1.005.019.566-.566-2.318-2.295.878-.872,2.319,2.295,5.7-5.634-2.319-2.3.88-.87,2.319,2.295,1.137-1.132.063-.082.04-.1v-.1l-.04-.1-.063-.084-1.83-1.825-.091-.056-.1-.033Zm-3.579-6.155.733.017.718.07.714.108.693.141.674.176.662.231.643.253.629.3.6.325.578.356.559.4.533.414.506.452.482.477.463.5.417.529.405.552.36.58.327.6.3.617.257.636.225.657.185.667.141.681.11.706.07.706.019.718-.019.732-.07.713-.11.706-.141.681-.185.667-.225.655-.257.636-.3.618-.327.6-.36.578-.405.554-.417.527-.463.5-.482.477-.506.452-.533.419-.559.395-.578.356-.6.323-.629.3-.643.255-.662.229-.674.178-.693.14-.714.108-.718.07-.733.019-.725-.019-.713-.07-.714-.108-.693-.14-.674-.178-.662-.229-.643-.255-.629-.3-.6-.323-.578-.356-.559-.395-.533-.419-.506-.452-.482-.477-.463-.5-.417-.527-.4-.554-.367-.578-.327-.6-.3-.618-.257-.636-.225-.655-.185-.667-.141-.681-.11-.706-.07-.713-.019-.732.019-.718.07-.706.11-.706.141-.681.185-.667.225-.657.257-.636.3-.617.327-.6.367-.58.4-.552.417-.529.463-.5.482-.477.506-.452.533-.414.559-.4.578-.356.6-.325.629-.3.643-.253.662-.231.674-.176.693-.141.714-.108.713-.07.725-.017Z" fill="#f9f9fa" fill-rule="evenodd"/>
    </g>
  </g>
</svg>
