<svg xmlns="http://www.w3.org/2000/svg" width="18" height="18" viewBox="0 0 18 18">
  <g id="Group_1512" data-name="Group 1512" transform="translate(0 0.121)">
    <path id="Shape" d="M12.5,18A2.5,2.5,0,0,1,10,15.5v-3A2.5,2.5,0,0,1,12.5,10h3A2.5,2.5,0,0,1,18,12.5v3A2.5,2.5,0,0,1,15.5,18Zm-10,0A2.5,2.5,0,0,1,0,15.5v-3A2.5,2.5,0,0,1,2.5,10h3A2.5,2.5,0,0,1,8,12.5v3A2.5,2.5,0,0,1,5.5,18Zm10-10A2.5,2.5,0,0,1,10,5.5v-3A2.5,2.5,0,0,1,12.5,0h3A2.5,2.5,0,0,1,18,2.5v3A2.5,2.5,0,0,1,15.5,8ZM2.5,8A2.5,2.5,0,0,1,0,5.5v-3A2.5,2.5,0,0,1,2.5,0h3A2.5,2.5,0,0,1,8,2.5v3A2.5,2.5,0,0,1,5.5,8Z" transform="translate(0 -0.121)" fill="#fff"/>
  </g>
</svg>
