<svg xmlns="http://www.w3.org/2000/svg" width="19" height="21.764" viewBox="0 0 19 21.764">
  <g id="product" transform="translate(0)">
    <path id="Path_2287" data-name="Path 2287" d="M121.927,11.519h7.651a.637.637,0,0,0,.638-.638V3.188a.637.637,0,0,0-.638-.638h-1.913V1.913a1.913,1.913,0,0,0-3.826,0V2.55h-1.913a.637.637,0,0,0-.638.638v7.694A.637.637,0,0,0,121.927,11.519Zm3.188-9.607a.638.638,0,0,1,1.275,0V2.55h-1.275Zm0,0" transform="translate(-116.134)" fill="#fff"/>
    <path id="Path_2288" data-name="Path 2288" d="M18.907,241.307a.638.638,0,0,0-.545-.308,3.021,3.021,0,0,0-2.676,1.619l-1.956,3.733a1.909,1.909,0,0,1-1.695,1.025H7.706a.638.638,0,0,1,0-1.275h4.33a.637.637,0,0,0,.566-.342l.731-1.395a.555.555,0,0,0-.493-.814H6.211a3.168,3.168,0,0,0-2.254.934L.186,248.255a.637.637,0,0,0,0,.9l3.188,3.176a.637.637,0,0,0,.9,0l2.418-2.406h5.341a4.453,4.453,0,0,0,3.954-2.392l2.936-5.6a.635.635,0,0,0-.019-.626Zm0,0" transform="translate(0 -230.755)" fill="#fff"/>
  </g>
</svg>
