<svg xmlns="http://www.w3.org/2000/svg" width="20.197" height="20.273" viewBox="0 0 20.197 20.273">
  <g id="loupe" transform="translate(-0.96)">
    <g id="Group_1754" data-name="Group 1754" transform="translate(0.96)">
      <path id="Path_2408" data-name="Path 2408" d="M20.475,15.976l-3.337-3.337a9.205,9.205,0,0,0,1.011-4.044,8.594,8.594,0,1,0-8.594,8.594A9.205,9.205,0,0,0,13.6,16.178l3.337,3.337a2.444,2.444,0,0,0,3.539,0A2.635,2.635,0,0,0,20.475,15.976Zm-10.92-.809a6.572,6.572,0,1,1,6.572-6.572A6.559,6.559,0,0,1,9.554,15.167Z" transform="translate(-0.96 0)" fill="#515462"/>
    </g>
  </g>
</svg>
