<svg id="Group_9" data-name="Group 9" xmlns="http://www.w3.org/2000/svg" width="24.087" height="22.543" viewBox="0 0 24.087 22.543">
  <path id="Path_83" data-name="Path 83" d="M34.2,11.145h-14.8a.6.6,0,0,0-.613.833l2.341,6.857a1.014,1.014,0,0,0,.911.67h9.7a1.011,1.011,0,0,0,.909-.67l2.04-7.019A.486.486,0,0,0,34.2,11.145Z" transform="translate(-10.641 -6.921)" fill="currentColor"/>
  <circle id="Ellipse_26" data-name="Ellipse 26" cx="2.213" cy="2.213" r="2.213" transform="translate(8.615 18.088)" fill="currentColor"/>
  <circle id="Ellipse_27" data-name="Ellipse 27" cx="2.213" cy="2.213" r="2.213" transform="translate(17.257 18.116)" fill="currentColor"/>
  <path id="Path_84" data-name="Path 84" d="M22.194,17.48H9.925L5.013,2.568H1.188A1.222,1.222,0,0,0,0,3.821,1.222,1.222,0,0,0,1.188,5.075H3.323L8.235,19.987H22.194a1.255,1.255,0,0,0,0-2.507Z" transform="translate(0 -2.568)" fill="currentColor"/>
</svg>
