<svg xmlns="http://www.w3.org/2000/svg" width="30" height="30" viewBox="0 0 25 25">
  <g id="Group_1666" data-name="Group 1666" transform="translate(-53 -145)">
    <g id="Group_1672" data-name="Group 1672" transform="translate(19 -575)">
      <circle id="Ellipse_446" data-name="Ellipse 446" cx="12.5" cy="12.5" r="12.5" transform="translate(34 720)" fill="#f03d3d"/>
    </g>
    <g id="Group_1690" data-name="Group 1690" transform="translate(131 88)">
      <path id="Path_93" data-name="Path 93" d="M-60.658,74h-7.36a.688.688,0,0,0-.681.781l.851,6.175a.687.687,0,0,0,.682.606h5.655a.687.687,0,0,0,.682-.606l.851-6.175A.688.688,0,0,0-60.658,74Zm-5.055,5.049a.2.2,0,0,1-.2.2H-66.2a.2.2,0,0,1-.2-.2v-2.88a.2.2,0,0,1,.2-.2h.286a.2.2,0,0,1,.2.2Zm1.719.937a.2.2,0,0,1-.2.2h-.286a.2.2,0,0,1-.2-.2V75.232a.2.2,0,0,1,.2-.2h.286a.2.2,0,0,1,.2.2Zm1.719-.937a.2.2,0,0,1-.2.2h-.286a.2.2,0,0,1-.2-.2v-2.88a.2.2,0,0,1,.2-.2h.286a.2.2,0,0,1,.2.2Z" transform="translate(-1.505 -6.563)" fill="#fff"/>
      <path id="Path_94" data-name="Path 94" d="M-61.031,65.031h-1.891v-.687A.344.344,0,0,0-63.266,64h-5.156a.344.344,0,0,0-.344.344v.688h-1.891a.344.344,0,0,0-.344.344v.688a.344.344,0,0,0,.344.344h9.625a.344.344,0,0,0,.344-.344v-.687A.344.344,0,0,0-61.031,65.031Z" fill="#fff"/>
    </g>
  </g>
</svg>
