<svg xmlns="http://www.w3.org/2000/svg" width="30" height="30" viewBox="0 0 25 25">
  <g id="Group_1667" data-name="Group 1667" transform="translate(-53 -145)">
    <g id="Group_1672" data-name="Group 1672" transform="translate(19 -575)">
      <circle id="Ellipse_446" data-name="Ellipse 446" cx="12.5" cy="12.5" r="12.5" transform="translate(34 720)" fill="rgba(81,84,98,0.8)"/>
    </g>
    <g id="edit_2_" data-name="edit (2)" transform="translate(59.488 152)">
      <g id="Group_1676" data-name="Group 1676" transform="translate(2.06 1.535)">
        <g id="Group_1675" data-name="Group 1675" transform="translate(0 0)">
          <rect id="Rectangle_2237" data-name="Rectangle 2237" width="7.229" height="3.82" transform="translate(0 5.112) rotate(-45)" fill="#fff"/>
        </g>
      </g>
      <g id="Group_1678" data-name="Group 1678" transform="translate(7.662 0)">
        <g id="Group_1677" data-name="Group 1677" transform="translate(0 0)">
          <path id="Path_2403" data-name="Path 2403" d="M262.844,2.174,260.849.151a.491.491,0,0,0-.693-.014l-.014.014-.877.877,2.7,2.716.877-.877A.479.479,0,0,0,262.844,2.174Z" transform="translate(-259.265 0)" fill="#fff"/>
        </g>
      </g>
      <g id="Group_1680" data-name="Group 1680" transform="translate(0.513 7.238)">
        <g id="Group_1679" data-name="Group 1679" transform="translate(0)">
          <path id="Path_2404" data-name="Path 2404" d="M1.664,261.954l-1.118,3a.491.491,0,0,0,.283.637.507.507,0,0,0,.354,0l3-1.132Z" transform="translate(-0.513 -261.954)" fill="#fff"/>
        </g>
      </g>
    </g>
  </g>
</svg>
