<svg xmlns="http://www.w3.org/2000/svg" width="32" height="32" viewBox="0 0 32 32">
  <g id="Group_1559" data-name="Group 1559" transform="translate(-6 -59)">
    <g id="Path_2346" data-name="Path 2346" transform="translate(6 59)" fill="#d6d7dd" opacity="0.11">
      <path d="M 27 31.5 L 5 31.5 C 2.51869010925293 31.5 0.5 29.48130989074707 0.5 27 L 0.5 5 C 0.5 2.51869010925293 2.51869010925293 0.5 5 0.5 L 27 0.5 C 29.48130989074707 0.5 31.5 2.51869010925293 31.5 5 L 31.5 27 C 31.5 29.48130989074707 29.48130989074707 31.5 27 31.5 Z" stroke="none"/>
      <path d="M 5 1 C 2.794389724731445 1 1 2.794389724731445 1 5 L 1 27 C 1 29.20561027526855 2.794389724731445 31 5 31 L 27 31 C 29.20561027526855 31 31 29.20561027526855 31 27 L 31 5 C 31 2.794389724731445 29.20561027526855 1 27 1 L 5 1 M 5 0 L 27 0 C 29.76141929626465 0 32 2.238580703735352 32 5 L 32 27 C 32 29.76141929626465 29.76141929626465 32 27 32 L 5 32 C 2.238580703735352 32 0 29.76141929626465 0 27 L 0 5 C 0 2.238580703735352 2.238580703735352 0 5 0 Z" stroke="none" fill="#515462"/>
    </g>
    <g id="keyboard-buttons-or-visualization-button-of-nine-squares" transform="translate(14 67)">
      <path id="Path_2329" data-name="Path 2329" d="M6.171.495A.494.494,0,0,0,5.677,0H2.345A.494.494,0,0,0,1.85.495V3.828a.494.494,0,0,0,.495.495H5.678a.494.494,0,0,0,.495-.495V.495Z" transform="translate(-1.85)" fill="currentColor"/>
      <path id="Path_2330" data-name="Path 2330" d="M355.871.495A.494.494,0,0,0,355.377,0h-3.332a.494.494,0,0,0-.495.495V3.828a.494.494,0,0,0,.495.495h3.332a.494.494,0,0,0,.495-.495Z" transform="translate(-345.711)" fill="currentColor"/>
      <path id="Path_2331" data-name="Path 2331" d="M705.571.495A.494.494,0,0,0,705.077,0h-3.332a.494.494,0,0,0-.495.495V3.828a.494.494,0,0,0,.495.495h3.333a.494.494,0,0,0,.495-.495V.495Z" transform="translate(-689.573)" fill="currentColor"/>
      <path id="Path_2332" data-name="Path 2332" d="M6.171,352.095a.494.494,0,0,0-.495-.495H2.345a.494.494,0,0,0-.495.495v3.332a.494.494,0,0,0,.495.495H5.678a.494.494,0,0,0,.495-.495v-3.332Z" transform="translate(-1.85 -345.761)" fill="currentColor"/>
      <path id="Path_2333" data-name="Path 2333" d="M355.871,352.095a.494.494,0,0,0-.495-.495h-3.332a.494.494,0,0,0-.495.495v3.332a.494.494,0,0,0,.495.495h3.332a.494.494,0,0,0,.495-.495Z" transform="translate(-345.711 -345.761)" fill="currentColor"/>
      <path id="Path_2334" data-name="Path 2334" d="M705.571,352.095a.494.494,0,0,0-.495-.495h-3.332a.494.494,0,0,0-.495.495v3.332a.494.494,0,0,0,.495.495h3.333a.494.494,0,0,0,.495-.495v-3.332Z" transform="translate(-689.573 -345.761)" fill="currentColor"/>
      <path id="Path_2335" data-name="Path 2335" d="M5.677,703.1H2.345a.494.494,0,0,0-.495.495v3.333a.494.494,0,0,0,.495.495H5.678a.494.494,0,0,0,.495-.495v-3.333A.5.5,0,0,0,5.677,703.1Z" transform="translate(-1.85 -691.423)" fill="currentColor"/>
      <path id="Path_2336" data-name="Path 2336" d="M355.377,703.1h-3.332a.494.494,0,0,0-.495.495v3.333a.494.494,0,0,0,.495.495h3.332a.494.494,0,0,0,.495-.495v-3.333A.5.5,0,0,0,355.377,703.1Z" transform="translate(-345.711 -691.423)" fill="currentColor"/>
      <path id="Path_2337" data-name="Path 2337" d="M705.077,703.1h-3.332a.494.494,0,0,0-.495.495v3.333a.494.494,0,0,0,.495.495h3.333a.494.494,0,0,0,.495-.495v-3.333A.5.5,0,0,0,705.077,703.1Z" transform="translate(-689.573 -691.423)" fill="currentColor"/>
    </g>
  </g>
</svg>
