<svg xmlns="http://www.w3.org/2000/svg" width="32" height="32" viewBox="0 0 32 32">
  <g id="Group_1560" data-name="Group 1560" transform="translate(-43 -59)">
    <g id="Path_2345" data-name="Path 2345" transform="translate(43 59)" fill="#d6d7dd" opacity="0.11">
      <path d="M 27 31.5 L 5 31.5 C 2.51869010925293 31.5 0.5 29.48130989074707 0.5 27 L 0.5 5 C 0.5 2.51869010925293 2.51869010925293 0.5 5 0.5 L 27 0.5 C 29.48130989074707 0.5 31.5 2.51869010925293 31.5 5 L 31.5 27 C 31.5 29.48130989074707 29.48130989074707 31.5 27 31.5 Z" stroke="none"/>
      <path d="M 5 1 C 2.794389724731445 1 1 2.794389724731445 1 5 L 1 27 C 1 29.20561027526855 2.794389724731445 31 5 31 L 27 31 C 29.20561027526855 31 31 29.20561027526855 31 27 L 31 5 C 31 2.794389724731445 29.20561027526855 1 27 1 L 5 1 M 5 0 L 27 0 C 29.76141929626465 0 32 2.238580703735352 32 5 L 32 27 C 32 29.76141929626465 29.76141929626465 32 27 32 L 5 32 C 2.238580703735352 32 0 29.76141929626465 0 27 L 0 5 C 0 2.238580703735352 2.238580703735352 0 5 0 Z" stroke="none" fill="#515462"/>
    </g>
    <g id="list-interface-symbol_1_" data-name="list-interface-symbol (1)" transform="translate(51 67)">
      <path id="Path_2341" data-name="Path 2341" d="M12.48,9.481v2.6a.729.729,0,0,0,.661.781h2.2A.729.729,0,0,0,16,12.077v-2.6a.729.729,0,0,0-.661-.781h-2.2A.729.729,0,0,0,12.48,9.481ZM.662,8.7h9.824a.729.729,0,0,1,.661.781v2.6a.729.729,0,0,1-.661.781H.661A.729.729,0,0,1,0,12.077v-2.6A.73.73,0,0,1,.662,8.7Zm12.48-5.922h2.2A.729.729,0,0,1,16,3.56v2.6a.729.729,0,0,1-.661.781h-2.2a.729.729,0,0,1-.661-.781V3.56A.729.729,0,0,1,13.141,2.779Zm-12.48,0h9.824a.729.729,0,0,1,.661.781v2.6a.729.729,0,0,1-.661.781H.661A.729.729,0,0,1,0,6.155V3.56A.73.73,0,0,1,.662,2.779Zm12.48,11.844h2.2A.729.729,0,0,1,16,15.4V18a.728.728,0,0,1-.661.781h-2.2A.728.728,0,0,1,12.48,18V15.4A.729.729,0,0,1,13.141,14.623Zm-12.48,0h9.824a.729.729,0,0,1,.661.781V18a.728.728,0,0,1-.661.781H.661A.728.728,0,0,1,0,18V15.4A.729.729,0,0,1,.662,14.623Z" transform="translate(0 -2.779)" fill="currentColor"/>
    </g>
  </g>
</svg>
