<svg xmlns="http://www.w3.org/2000/svg" xmlns:xlink="http://www.w3.org/1999/xlink" width="130.547" height="144.946" viewBox="0 0 130.547 144.946">
  <defs>
    <linearGradient id="linear-gradient" x1="0.5" x2="0.5" y2="1" gradientUnits="objectBoundingBox">
      <stop offset="0" stop-color="#e2e5f3"/>
      <stop offset="1" stop-color="#f5f5f6"/>
    </linearGradient>
  </defs>
  <g id="Group_1480" data-name="Group 1480" transform="translate(-113 -324)">
    <g id="_81_Converted_" data-name="81 [Converted]" transform="translate(113 324)">
      <rect id="Rectangle_2201" data-name="Rectangle 2201" width="83" height="136" rx="7" transform="translate(5 4)" fill="#fff"/>
      <path id="Path_2215" data-name="Path 2215" d="M534.164,446.253a7.577,7.577,0,0,1-3.142.663H476.105c-3.863,0-7.005-2.767-7.005-6.14V352.591a5.627,5.627,0,0,1,.461-2.191c17.7,41.858,39.35,73.8,64.6,95.853" transform="translate(-456.502 -327.972)" fill-rule="evenodd" fill="url(#linear-gradient)"/>
      <path id="Path_2216" data-name="Path 2216" d="M438.661,272.6h66.477A13.287,13.287,0,0,1,518.4,285.861v23h-7.12v-23a6.2,6.2,0,0,0-6.14-6.14H438.661a6.2,6.2,0,0,0-6.14,6.14V404.285a6.2,6.2,0,0,0,6.14,6.14h66.477a6.2,6.2,0,0,0,6.14-6.14v-7.668h7.12v7.668a13.287,13.287,0,0,1-13.261,13.261H438.661A13.287,13.287,0,0,1,425.4,404.285V285.861A13.288,13.288,0,0,1,438.661,272.6" transform="translate(-425.4 -272.6)" fill="#515462"/>
      <path id="Path_2217" data-name="Path 2217" d="M528.235,309.3h39.119a2.325,2.325,0,0,1,2.335,2.335h0a2.325,2.325,0,0,1-2.335,2.335H528.235a2.325,2.325,0,0,1-2.335-2.335h0a2.344,2.344,0,0,1,2.335-2.335" transform="translate(-496.928 -298.72)" fill="#515462" fill-rule="evenodd"/>
      <path id="Path_2218" data-name="Path 2218" d="M498.223,309.3a2.623,2.623,0,1,1-2.623,2.623,2.633,2.633,0,0,1,2.623-2.623" transform="translate(-475.363 -298.72)" fill="#515462" fill-rule="evenodd"/>
      <path id="Path_2219" data-name="Path 2219" d="M574.6,706.9a4.9,4.9,0,1,1-4.9,4.9,4.9,4.9,0,0,1,4.9-4.9" transform="translate(-528.102 -581.701)" fill="#515462" fill-rule="evenodd"/>
      <path id="Path_2220" data-name="Path 2220" d="M594.858,392h63.364a3.223,3.223,0,0,1,3.315,2.8l7.38,78.7a2.787,2.787,0,0,1-.865,2.335,3.348,3.348,0,0,1-2.45.98H587.478a3.369,3.369,0,0,1-2.45-.98,2.786,2.786,0,0,1-.865-2.335l7.38-78.7a3.183,3.183,0,0,1,3.315-2.8" transform="translate(-538.384 -357.58)" fill="#f8a912" fill-rule="evenodd"/>
      <path id="Path_2221" data-name="Path 2221" d="M647.568,420.683a2.563,2.563,0,1,1-1.9,3.085,2.571,2.571,0,0,1,1.9-3.085m-9.6,2.739,8.36-6.342a1.4,1.4,0,0,1,1.153-.26l9.917,2.047a1.418,1.418,0,0,1,1.124,1.1l5.794,24.5a1.432,1.432,0,0,1-1.067,1.73l-18.277,4.324a1.432,1.432,0,0,1-1.73-1.067l-5.794-24.5A1.353,1.353,0,0,1,637.968,423.422Z" transform="translate(-576.277 -375.221)" fill="#e49500" fill-rule="evenodd"/>
      <path id="Path_2222" data-name="Path 2222" d="M645.039,411.614a2.566,2.566,0,1,1-2.566,2.566,2.571,2.571,0,0,1,2.566-2.566m-9.974.432,9.6-4.266a1.41,1.41,0,0,1,1.182,0l9.2,4.266a1.42,1.42,0,0,1,.836,1.3V438.51a1.445,1.445,0,0,1-1.441,1.441h-18.8a1.446,1.446,0,0,1-1.441-1.441V413.344A1.447,1.447,0,0,1,635.065,412.046Z" transform="translate(-574.008 -368.718)" fill="#fff" fill-rule="evenodd"/>
      <rect id="Rectangle_2187" data-name="Rectangle 2187" width="3.056" height="13.145" transform="translate(69.504 28.684)" fill="#fff"/>
      <path id="Path_2223" data-name="Path 2223" d="M668.934,328.3a19.11,19.11,0,0,0-12.627,17.931v1.9H652.3v-1.9a23.155,23.155,0,0,1,16.634-22.14Zm10.868-4.7A23.171,23.171,0,0,1,698.4,346.23v1.9h-4.007v-1.9A19.15,19.15,0,0,0,679.8,327.694Z" transform="translate(-586.89 -308.898)" fill="#f8a912"/>
      <g id="al-aqsa-mosque_1_" data-name="al-aqsa-mosque (1)" transform="translate(63.493 53.047)">
        <path id="Path_2230" data-name="Path 2230" d="M29.783,3.611a.781.781,0,0,0,.261-1.519V1h-.522V2.092a.781.781,0,0,0,.261,1.519Z" transform="translate(-22.211 -1)" fill="#e49500"/>
        <path id="Path_2231" data-name="Path 2231" d="M15,33h1.044v1.044H15Z" transform="translate(-11.867 -24.645)" fill="#e49500"/>
        <path id="Path_2232" data-name="Path 2232" d="M9,33h1.044v1.044H9Z" transform="translate(-7.433 -24.645)" fill="#e49500"/>
        <path id="Path_2233" data-name="Path 2233" d="M21,33h1.044v1.044H21Z" transform="translate(-16.3 -24.645)" fill="#e49500"/>
        <path id="Path_2234" data-name="Path 2234" d="M27,33h1.044v1.044H27Z" transform="translate(-20.734 -24.645)" fill="#e49500"/>
        <path id="Path_2235" data-name="Path 2235" d="M49,51h1.044v1.567H49Z" transform="translate(-36.989 -37.945)" fill="#e49500"/>
        <path id="Path_2236" data-name="Path 2236" d="M26.828,51A1.83,1.83,0,0,0,25,52.828v.783h3.655v-.783A1.83,1.83,0,0,0,26.828,51Z" transform="translate(-19.256 -37.945)" fill="#e49500"/>
        <path id="Path_2237" data-name="Path 2237" d="M4.044,33H3v1.044H4.044Z" transform="translate(-3 -24.645)" fill="#e49500"/>
        <path id="Path_2238" data-name="Path 2238" d="M51,33h1.044v1.044H51Z" transform="translate(-38.467 -24.645)" fill="#e49500"/>
        <path id="Path_2239" data-name="Path 2239" d="M12.164,19h-2.07a5.213,5.213,0,0,0-.614,1.044h2.5A4.4,4.4,0,0,1,12.164,19Z" transform="translate(-7.788 -14.3)" fill="#e49500"/>
        <path id="Path_2240" data-name="Path 2240" d="M20.055,25H7v1.567H20.055ZM8.044,26.044H7.522v-.522h.522Zm1.044,0H8.567v-.522h.522Zm1.044,0H9.611v-.522h.522Zm1.044,0h-.522v-.522h.522Zm1.044,0H11.7v-.522h.522Zm1.044,0h-.522v-.522h.522Zm1.044,0h-.522v-.522h.522Zm1.044,0h-.522v-.522h.522Zm1.044,0h-.522v-.522H16.4Zm1.044,0h-.522v-.522h.522Zm1.044,0h-.522v-.522h.522Zm1.044,0h-.522v-.522h.522Z" transform="translate(-5.956 -18.734)" fill="#e49500"/>
        <path id="Path_2241" data-name="Path 2241" d="M16.63,11.181A5.258,5.258,0,0,0,13.572,12.7h1.812A3.767,3.767,0,0,1,16.63,11.181Z" transform="translate(-10.812 -8.523)" fill="#e49500"/>
        <path id="Path_2242" data-name="Path 2242" d="M33,33h1.044v1.044H33Z" transform="translate(-25.167 -24.645)" fill="#e49500"/>
        <path id="Path_2243" data-name="Path 2243" d="M39,33h1.044v1.044H39Z" transform="translate(-29.6 -24.645)" fill="#e49500"/>
        <path id="Path_2244" data-name="Path 2244" d="M45,33h1.044v1.044H45Z" transform="translate(-34.034 -24.645)" fill="#e49500"/>
        <path id="Path_2245" data-name="Path 2245" d="M7,43H8.044v.522H7Z" transform="translate(-5.956 -32.034)" fill="#e49500"/>
        <path id="Path_2246" data-name="Path 2246" d="M17,43h1.044v.522H17Z" transform="translate(-13.345 -32.034)" fill="#e49500"/>
        <path id="Path_2247" data-name="Path 2247" d="M27,43h2.611v.522H27Z" transform="translate(-20.734 -32.034)" fill="#e49500"/>
        <path id="Path_2248" data-name="Path 2248" d="M44.428,20.044h2.5A5.225,5.225,0,0,0,46.312,19h-2.07A4.409,4.409,0,0,1,44.428,20.044Z" transform="translate(-33.474 -14.3)" fill="#e49500"/>
        <path id="Path_2249" data-name="Path 2249" d="M57.522,33H57v1.044h1.044V33Z" transform="translate(-42.901 -24.645)" fill="#e49500"/>
        <path id="Path_2250" data-name="Path 2250" d="M3,44.744H8.222v-.783a2.35,2.35,0,1,1,4.7,0v.783h5.222V39H3Zm13.577-.522H14.488V41.611h2.089Zm-1.044-4.7h2.089v1.567H15.533Zm-2.611,0h2.089v1.567H12.922Zm-6.266,4.7H4.567V41.611H6.655Zm2.089-4.7H12.4v1.567H8.744Zm-2.611,0H8.222v1.567H6.133Zm-2.611,0H5.611v1.567H3.522Z" transform="translate(-3 -29.078)" fill="#e49500"/>
        <path id="Path_2251" data-name="Path 2251" d="M53,43h1.044v.522H53Z" transform="translate(-39.945 -32.034)" fill="#e49500"/>
        <path id="Path_2252" data-name="Path 2252" d="M43,43h1.044v.522H43Z" transform="translate(-32.556 -32.034)" fill="#e49500"/>
        <path id="Path_2253" data-name="Path 2253" d="M22.746,12.567h4.833a2.647,2.647,0,0,0-4.833,0Z" transform="translate(-17.59 -8.389)" fill="#e49500"/>
        <path id="Path_2254" data-name="Path 2254" d="M39.962,12.7h1.812a5.258,5.258,0,0,0-3.058-1.519A3.767,3.767,0,0,1,39.962,12.7Z" transform="translate(-29.391 -8.523)" fill="#e49500"/>
        <path id="Path_2255" data-name="Path 2255" d="M21.043,20.044h5.722A3.875,3.875,0,0,0,26.554,19h-5.3A3.874,3.874,0,0,0,21.043,20.044Z" transform="translate(-16.332 -14.3)" fill="#e49500"/>
        <path id="Path_2256" data-name="Path 2256" d="M11,51h1.044v1.567H11Z" transform="translate(-8.911 -37.945)" fill="#e49500"/>
      </g>
      <g id="Group_1510" data-name="Group 1510" transform="translate(53.855 77.606)">
        <path id="Path_2257" data-name="Path 2257" d="M4.742-.881a10.47,10.47,0,0,0-3.611.99A4.188,4.188,0,0,0-.444,1.245a8.889,8.889,0,0,0,1.687.382q1.822.36,1.867.911a4.332,4.332,0,0,1-.517,2.036Q.625,7.128-6.079,8.7A45.645,45.645,0,0,1-16.518,10a34.219,34.219,0,0,1-5.939-.45,26.777,26.777,0,0,1-6.1-1.9,17.715,17.715,0,0,1-3.971-3.813,2.025,2.025,0,0,1-.394-.742.07.07,0,0,1,.079-.079,2.7,2.7,0,0,1,.945.506A26.162,26.162,0,0,0-16.912,8.039,51.944,51.944,0,0,0-5.213,6.8a20.825,20.825,0,0,0,7.548-3q-.236-.506-1.3-.731Q-.534,2.753-.59,2.73q-.866-.551-.866-.967a2.245,2.245,0,0,1,.169-.529A6.932,6.932,0,0,1,1.243-1.207a11.426,11.426,0,0,1,2.036-1.08,6,6,0,0,1,1.462-.461Zm13.948,0q-.214-.011-1.406.124a21.281,21.281,0,0,1-2.171.135,15.015,15.015,0,0,1-2.925-.371q-.7.135-2.216.337A2.584,2.584,0,0,1,8.814-.768a2.749,2.749,0,0,0-.6.945Q7.891.9,7.779.9,7.7.9,7.644.705A15.841,15.841,0,0,1,8.172-.9a1.024,1.024,0,0,1-.877-.63q-.3-.6-.6-.6T5.743-1.5q-.675.624-1,.624V-2.748A3.8,3.8,0,0,0,6.7-3.58a.377.377,0,0,1,.214-.079,2.58,2.58,0,0,1,.726.534,2.114,2.114,0,0,0,1.434.534q4.421-4.634,5.8-4.646A2.958,2.958,0,0,1,16.26-6.8q.967.506.967,1.125A3.465,3.465,0,0,1,16.6-3.811a4.673,4.673,0,0,1-1.49,1.5q.394-.022,1.676-.157.832-.135,1.9-.281ZM16-4.638a2.846,2.846,0,0,0-1.856-.551,3.774,3.774,0,0,0-2.025,1.1q-.281.247-1.552,1.519a8.042,8.042,0,0,0,3.521-.855Q15.979-4.266,16-4.638ZM22.12-13a2.169,2.169,0,0,1-.337.517,4.332,4.332,0,0,1-.585.675q-.529-.382-1.294-1.035a5.185,5.185,0,0,1,.45-.737,1.886,1.886,0,0,1,.45-.523A2.965,2.965,0,0,1,22.12-13Zm-2.227.382q.045.157-.309.681a1.746,1.746,0,0,1-.591.624q-.484-.371-1.282-.99-.09-.191.855-1.327A4.349,4.349,0,0,1,19.893-12.613Zm3.7,7.345a6.01,6.01,0,0,1-.079,1.046q-.214.731-.281.911a2.179,2.179,0,0,1-.416.731,6.754,6.754,0,0,1-2.126,1.215,5.994,5.994,0,0,1-2,.484V-2.748A6.317,6.317,0,0,0,21.423-3.3a3.588,3.588,0,0,0,1.429-1.114,1.832,1.832,0,0,0,.011-.2,2.424,2.424,0,0,0-.7-1.71,2.2,2.2,0,0,1-.349,1.5,1.387,1.387,0,0,1-.889.36q-.112.011-.214.011-1.159,0-1.159-1.957a3.694,3.694,0,0,1,.461-1.6q.529-1.091,1.2-1.136.81-.056,1.564,1.035A4.976,4.976,0,0,1,23.594-5.267ZM21.715-6.73a2.234,2.234,0,0,0-.619-.461,1.821,1.821,0,0,0-.489.354q-.264.253-.264.4t.337.146Q21.49-6.291,21.715-6.73Zm5.568-13.982a.331.331,0,0,1,.079-.011q.1,0,.1.135a1.335,1.335,0,0,1-.337.844,3.477,3.477,0,0,1-1.294.832,6.555,6.555,0,0,0-1.5.844.715.715,0,0,1-.36.034q-.146-.011-.146-.112,0-.326.911-.979-.607-.124-.619-.135a1.253,1.253,0,0,1-.45-.686q.607-1.991,1.721-1.991a.694.694,0,0,1,.562.259q.124.124-.045.877a2.3,2.3,0,0,1-.191.191q-.1.09-.427.034-.067-.011-.073-.146t-.051-.135q-.754.1-.754.416a1.588,1.588,0,0,0,.742.472q.3.079.607.146a3.562,3.562,0,0,0,.844-.427Q27.126-20.621,27.283-20.711Zm5.287,5.7a2.9,2.9,0,0,1-.619,1.912l.022,3.667a12.6,12.6,0,0,1-.439,3.363,5.439,5.439,0,0,1-.72,1.822,12.09,12.09,0,0,1,.371,1.192,4.239,4.239,0,0,1,.022,1.991.927.927,0,0,1-.81.776,26.665,26.665,0,0,1-3.543.416q-.3.011-.3-.394a5.025,5.025,0,0,1,.079-.652,3.767,3.767,0,0,0,.067-.709q-.011-.112.18-.2a7.151,7.151,0,0,0,1.676-1.159q.191-.18,1.2-1.3a20.775,20.775,0,0,0-3.959-6.7q.067.371.011.439-.022.022-.079,0a4.869,4.869,0,0,1-2.193-1.777,6.968,6.968,0,0,1,.281-2.418q-.067-.326.292-.326.844,0,2.565,2.351a26.877,26.877,0,0,1,3.723,7.3q.742-.979.742-4.814,0-2.306-.09-3.195a9.8,9.8,0,0,1-.416-1.091,3.878,3.878,0,0,1,.253-1.44q.309-.99.546-.99.112,0,.169.315A2.441,2.441,0,0,0,32.57-15.009Zm-2.1,12.767q-.157-.427-.36-.99a4.953,4.953,0,0,1-1.294,1.08A2.906,2.906,0,0,0,30.467-2.242Zm5.95-.011A2.47,2.47,0,0,1,36.2-.971q-.124.27-.236.27-.259,0-.484-1.8Q35.236-4.728,35-6.955q-.146-1.361-.427-3.374-.2-1.474-.2-1.721a3.6,3.6,0,0,1,.337-1.676q.124-.225.191-.225.157,0,.326,1.249.045.27.574,4.6Q36.26-4.334,36.417-2.253Z" transform="translate(32.918 21.938)" fill="#515462"/>
        <path id="Path_2258" data-name="Path 2258" d="M6.482-5.608a1.558,1.558,0,0,1-.127.429q-.155.415-.337.436A.961.961,0,0,1,5.575-5a1.547,1.547,0,0,1-.337-.387q.3-.787.478-.865a1.141,1.141,0,0,1,.387.225Q6.447-5.776,6.482-5.608ZM5.1-5.1a1.041,1.041,0,0,1-.091.464q-.127.366-.239.366a1.314,1.314,0,0,1-.492-.218q-.366-.218-.373-.337Q3.824-5,4.3-5.72A2.564,2.564,0,0,1,5.1-5.1ZM10.327-.482q-.569,0-1.308-1.083a4.861,4.861,0,0,1-.344.408,2.431,2.431,0,0,1-.5.373A9.488,9.488,0,0,1,6.6-.335,13.918,13.918,0,0,1,3.424.094,5.02,5.02,0,0,1,1.132-.384,1.806,1.806,0,0,1,0-2.05,3.39,3.39,0,0,1,.253-3.094q.253-.692.415-.692a.067.067,0,0,1,.049.021q.042.049,0,.211a2.512,2.512,0,0,0-.07.253,2.108,2.108,0,0,0,0,.745q.408,1.385,3.128,1.385a11.473,11.473,0,0,0,5.013-.984.509.509,0,0,0,.246-.267q.042-.12.084-.246.07-.162.127-.162t.105.186a.806.806,0,0,1,.014.292q-.021.127-.1.4a1.777,1.777,0,0,0,1.062.3Zm6.826-11.41a3.012,3.012,0,0,1-.246.612,5.339,5.339,0,0,1-1.617,1.23Q14.335-9.523,13.379-9q-.8.506-2.756,1.659a6.686,6.686,0,0,0-1.336.963,8.066,8.066,0,0,1,1.954,1.2A3.462,3.462,0,0,1,12.8-2.606,1.982,1.982,0,0,1,12.155-1.3a2.423,2.423,0,0,1-1.828.816V-1.65a2.415,2.415,0,0,0,1.294-.4q.619-.394.619-.738Q12.2-3.224,11.03-4.075A5.287,5.287,0,0,0,9.5-4.968q-.049-.021-.127.035a.4.4,0,0,1-.148.077,1.125,1.125,0,0,1-.654-.7,5.49,5.49,0,0,1-.042-.921.75.75,0,0,1,.134-.443q.049-.07.408-.436A16.449,16.449,0,0,1,12.64-9.622q1.765-.984,4.457-2.4A.227.227,0,0,1,17.154-11.892ZM18.56-1.776q.007.176.007.337a4.428,4.428,0,0,1-.7,2.5,6.508,6.508,0,0,1-1.209,1.258,1.5,1.5,0,0,1-.78.169,14.48,14.48,0,0,1-2.067-.309.407.407,0,0,1-.148-.105q-.105-.1-.105-.155a.045.045,0,0,1,.035-.028,7.888,7.888,0,0,1,.949-.056,2.868,2.868,0,0,0,.893-.134,4.067,4.067,0,0,0,2.65-2.587,7.1,7.1,0,0,0-.506-.97,2.32,2.32,0,0,1-.387-.935.5.5,0,0,1,.1-.172.875.875,0,0,0,.134-.39q.028-.2.134-.2.225,0,.6.689A2.8,2.8,0,0,1,18.56-1.776Zm3.7,1.294q-.879,0-1.125-.429a7.741,7.741,0,0,1-.492-2.383q-.2-1.807-.478-3.663-.07-.352-.246-1.322l.127-.7q.077-.436.148-.436.028,0,.063.091a11.917,11.917,0,0,1,.429,2.25q.33,2.608.344,2.728a13.121,13.121,0,0,0,.408,2.215.818.818,0,0,0,.823.485Zm3.571-1.99a1.511,1.511,0,0,1-.2.7.944.944,0,0,1-.432.471,4.62,4.62,0,0,1-.6-.077A2.307,2.307,0,0,1,23.586-1.8a4.121,4.121,0,0,0-.464.745,1.178,1.178,0,0,1-.858.576V-1.65a1.326,1.326,0,0,0,.851-.38q.633-.724.675-.759a.319.319,0,0,0,.134,0,2.393,2.393,0,0,1,.443-.819.817.817,0,0,1,.576-.348.762.762,0,0,1,.724.548A2.429,2.429,0,0,1,25.836-2.472Zm-.717.091a3,3,0,0,0-.112-.45.36.36,0,0,0-.408-.2.4.4,0,0,0-.267.141q-.063.084-.127.162A1.963,1.963,0,0,0,25.119-2.381Z" transform="translate(3.761 22.499)" fill="#515462"/>
      </g>
    </g>
  </g>
</svg>
