<svg xmlns="http://www.w3.org/2000/svg" width="18.161" height="15.74" viewBox="0 0 18.161 15.74">
  <g id="photo-camera" transform="translate(0 -36.54)">
    <g id="Group_1608" data-name="Group 1608" transform="translate(0 36.54)">
      <path id="Path_2386" data-name="Path 2386" d="M17.451,39.671a2.333,2.333,0,0,0-1.712-.709H13.621l-.482-1.286a1.757,1.757,0,0,0-.657-.8,1.685,1.685,0,0,0-.979-.336H6.659a1.685,1.685,0,0,0-.979.336,1.757,1.757,0,0,0-.657.8L4.54,38.962H2.421a2.333,2.333,0,0,0-1.712.709A2.333,2.333,0,0,0,0,41.383v8.475A2.333,2.333,0,0,0,.709,51.57a2.333,2.333,0,0,0,1.712.71H15.739a2.422,2.422,0,0,0,2.421-2.421V41.383A2.333,2.333,0,0,0,17.451,39.671Zm-5.377,8.943A4.081,4.081,0,0,1,9.08,49.858a4.081,4.081,0,0,1-2.994-1.244,4.224,4.224,0,0,1,0-5.987A4.081,4.081,0,0,1,9.08,41.383a4.081,4.081,0,0,1,2.994,1.244,4.224,4.224,0,0,1,0,5.987Z" transform="translate(0 -36.54)" fill="#515462"/>
      <path id="Path_2387" data-name="Path 2387" d="M194.58,228.4a2.729,2.729,0,1,0,1.925.8A2.624,2.624,0,0,0,194.58,228.4Z" transform="translate(-185.5 -222.047)" fill="#515462"/>
    </g>
  </g>
</svg>
