<svg xmlns="http://www.w3.org/2000/svg" width="101" height="101" viewBox="0 0 101 101">
  <g id="icon" transform="translate(-137 -173)">
    <g id="Ellipse_17" data-name="Ellipse 17" transform="translate(137 173)" fill="#fff" stroke="#f8a912" stroke-width="1">
      <circle cx="50.5" cy="50.5" r="50.5" stroke="none"/>
      <circle cx="50.5" cy="50.5" r="50" fill="none"/>
    </g>
    <path id="Path_23" data-name="Path 23" d="M40.861,29.806v0a1.667,1.667,0,0,0-.512-1.2h0L15.6,4.59l0,0a1.672,1.672,0,1,0-2.247,2.476l23.48,22.734-8.88,8.88h0a1.673,1.673,0,0,0,2.365,2.365h0L40.35,31.014h0a1.667,1.667,0,0,0,.512-1.2Z" transform="translate(210.551 197.968) rotate(90)" fill="#f8a912" stroke="#f8a912" stroke-linecap="round" stroke-linejoin="round" stroke-width="3"/>
  </g>
</svg>
