<svg xmlns="http://www.w3.org/2000/svg" width="20.746" height="20.6" viewBox="0 0 13.746 13.6">
  <path id="Path_1" data-name="Path 1" d="M308.3,343.357l-.055.015-.052.036-5.244,5.2.007,0-.055.04-.04.059-.026.062L302.554,350l-.007.062.011.065.025.058.045.051.051.04.059.026.066.007h.03l.029,0,1.239-.277.067-.022.051-.04.048-.055,0,.011.324-.324-1.327-1.314.5-.5L305.1,349.1l3.262-3.226-1.328-1.315.5-.5,1.328,1.314.651-.648.036-.047.023-.059v-.058l-.023-.058-.036-.048-1.048-1.045-.052-.032-.059-.019Zm-2.049-3.524.42.01.411.04.409.062.4.081.386.1.379.132.368.145.36.171.346.186.331.2.32.229.305.237.29.259.276.273.265.287.239.3.232.316.206.332.187.342.173.353.147.364.129.376.106.382.081.39.063.4.04.4.011.411-.011.419-.04.408-.063.4-.081.39-.106.382-.129.375-.147.364-.173.354-.187.342-.206.331-.232.317-.239.3-.265.288-.276.273-.29.259-.305.24-.32.226-.331.2-.346.185-.36.171-.368.146-.379.131-.386.1-.4.08-.409.062-.411.04-.42.011-.415-.011-.408-.04-.409-.062-.4-.08-.386-.1-.379-.131-.368-.146-.36-.171-.346-.185-.331-.2-.32-.226-.305-.24-.29-.259-.276-.273-.265-.288-.239-.3-.228-.317-.21-.331-.187-.342-.173-.354-.147-.364-.129-.375-.106-.382-.081-.39-.063-.4-.04-.408-.011-.419.011-.411.04-.4.063-.4.081-.39.106-.382.129-.376.147-.364.173-.353.187-.342.21-.332.228-.316.239-.3.265-.287.276-.273.29-.259.305-.237.32-.229.331-.2.346-.186.36-.171.368-.145.379-.132.386-.1.4-.081.409-.062.408-.04.415-.01Z" transform="translate(-299.377 -339.833)" fill="#f8a912" fill-rule="evenodd"/>
</svg>
