<svg xmlns="http://www.w3.org/2000/svg" width="19.484" height="17.817" viewBox="0 0 19.484 17.817">
  <g id="history" transform="translate(0 0)">
    <g id="Group_1590" data-name="Group 1590" transform="translate(0 0)">
      <g id="Group_1589" data-name="Group 1589">
        <path id="Path_2359" data-name="Path 2359" d="M80.515,103.476l-.933-.8a8.936,8.936,0,0,0-.783,1.062l1.044.653A7.546,7.546,0,0,1,80.515,103.476Z" transform="translate(-75.775 -99.568)" fill="#fff"/>
        <path id="Path_2360" data-name="Path 2360" d="M125.032,58.864l-.661-1.036a8.9,8.9,0,0,0-1.059.788l.8.928A7.721,7.721,0,0,1,125.032,58.864Z" transform="translate(-118.578 -56.441)" fill="#fff"/>
        <path id="Path_2361" data-name="Path 2361" d="M83.973,26.63a8.922,8.922,0,0,0-11.582-4.152l.5,1.123a7.682,7.682,0,1,1-3.742,10.465l-1.1.549A8.907,8.907,0,1,0,83.973,26.63Z" transform="translate(-65.435 -21.716)" fill="#fff"/>
        <path id="Path_2362" data-name="Path 2362" d="M3.686,162.57l-.733.732a7.47,7.47,0,0,1,.43-1.776c.047-.126.1-.251.152-.374l-1.127-.491c-.061.142-.123.286-.174.43A8.693,8.693,0,0,0,1.7,163.4l-.832-.832L0,163.439l2.277,2.277,2.277-2.277Z" transform="translate(0 -155.325)" fill="#fff"/>
        <path id="Path_2363" data-name="Path 2363" d="M251.312,109.716v6.143H255V114.63h-2.457v-4.914Z" transform="translate(-241.663 -106.337)" fill="#fff"/>
        <rect id="Rectangle_2207" data-name="Rectangle 2207" width="1.229" height="1.229" transform="translate(14.563 8.293)" fill="#fff"/>
        <rect id="Rectangle_2208" data-name="Rectangle 2208" width="1.229" height="1.229" transform="translate(9.649 13.208)" fill="#fff"/>
      </g>
    </g>
  </g>
</svg>
