<svg xmlns="http://www.w3.org/2000/svg" width="19.089" height="19.089" viewBox="0 0 19.089 19.089">
  <g id="instagram_8_" data-name="instagram (8)" transform="translate(0)">
    <path id="Path_2371" data-name="Path 2371" d="M210.654,208.827A1.827,1.827,0,1,1,208.827,207,1.827,1.827,0,0,1,210.654,208.827Zm0,0" transform="translate(-199.282 -199.282)" fill="currentColor"/>
    <path id="Path_2372" data-name="Path 2372" d="M144.251,136.749a1.815,1.815,0,0,0-1.04-1.04,3.033,3.033,0,0,0-1.018-.189c-.578-.026-.751-.032-2.215-.032s-1.637.006-2.215.032a3.034,3.034,0,0,0-1.018.189,1.816,1.816,0,0,0-1.04,1.04,3.034,3.034,0,0,0-.189,1.018c-.026.578-.032.751-.032,2.215s.006,1.637.032,2.215a3.033,3.033,0,0,0,.189,1.018,1.815,1.815,0,0,0,1.04,1.04,3.029,3.029,0,0,0,1.018.189c.578.026.751.032,2.215.032s1.637-.006,2.215-.032a3.029,3.029,0,0,0,1.018-.189,1.815,1.815,0,0,0,1.04-1.04,3.036,3.036,0,0,0,.189-1.018c.026-.578.032-.751.032-2.215s-.006-1.637-.032-2.215A3.028,3.028,0,0,0,144.251,136.749Zm-4.273,6.047a2.814,2.814,0,1,1,2.814-2.814A2.814,2.814,0,0,1,139.978,142.8Zm2.926-5.082a.658.658,0,1,1,.658-.658A.658.658,0,0,1,142.9,137.714Zm0,0" transform="translate(-130.433 -130.437)" fill="currentColor"/>
    <path id="Path_2373" data-name="Path 2373" d="M9.545,0a9.545,9.545,0,1,0,9.545,9.545A9.546,9.546,0,0,0,9.545,0Zm5.448,11.8a4.021,4.021,0,0,1-.255,1.33,2.8,2.8,0,0,1-1.6,1.6,4.024,4.024,0,0,1-1.33.255c-.584.027-.771.033-2.26.033s-1.675-.006-2.26-.033a4.024,4.024,0,0,1-1.33-.255,2.8,2.8,0,0,1-1.6-1.6A4.02,4.02,0,0,1,4.1,11.8c-.027-.585-.033-.771-.033-2.26S4.07,7.87,4.1,7.285a4.022,4.022,0,0,1,.255-1.33,2.8,2.8,0,0,1,1.6-1.6A4.025,4.025,0,0,1,7.285,4.1c.584-.027.771-.033,2.26-.033s1.675.006,2.26.033a4.026,4.026,0,0,1,1.33.254,2.8,2.8,0,0,1,1.6,1.6,4.021,4.021,0,0,1,.255,1.33c.027.584.033.771.033,2.26S15.019,11.22,14.992,11.8Zm0,0" transform="translate(0)" fill="currentColor"/>
  </g>
</svg>
