<svg id="logout_1_" data-name="logout (1)" xmlns="http://www.w3.org/2000/svg" width="19.771" height="19.771" viewBox="0 0 19.771 19.771">
  <g id="Group_1606" data-name="Group 1606" transform="translate(0 0)">
    <g id="Group_1605" data-name="Group 1605">
      <path id="Path_2374" data-name="Path 2374" d="M7.414,9.888A2.474,2.474,0,0,1,9.885,7.417h3.3V.827A.824.824,0,0,0,12.357,0H.824A.824.824,0,0,0,0,.827V18.95a.824.824,0,0,0,.824.824H12.357a.824.824,0,0,0,.824-.824V12.36h-3.3A2.474,2.474,0,0,1,7.414,9.888Z" transform="translate(0 -0.003)" fill="currentColor"/>
      <path id="Path_2375" data-name="Path 2375" d="M245.191,153.969l.007-.009c.014-.018.028-.036.04-.055l.017-.027c.008-.014.017-.027.024-.041s.011-.024.017-.035.012-.024.017-.037.01-.027.015-.041.008-.023.012-.034.009-.033.013-.049.005-.019.007-.029.008-.045.01-.068c0,0,0-.008,0-.012a.828.828,0,0,0,0-.167s0-.008,0-.012c0-.023-.006-.045-.01-.068s0-.019-.007-.029-.008-.033-.013-.049-.008-.023-.012-.034-.009-.028-.015-.041-.011-.025-.017-.037-.011-.024-.017-.035-.016-.028-.024-.041l-.017-.027c-.013-.019-.026-.037-.04-.055l-.007-.009a.815.815,0,0,0-.059-.065l-3.292-3.292a.824.824,0,0,0-1.165,1.165l1.889,1.889h-7.073a.824.824,0,1,0,0,1.648h7.073l-1.889,1.889a.824.824,0,1,0,1.165,1.165l3.292-3.292A.811.811,0,0,0,245.191,153.969Z" transform="translate(-225.605 -143.563)" fill="currentColor"/>
    </g>
  </g>
</svg>
