<svg id="solid" xmlns="http://www.w3.org/2000/svg" width="20.189" height="15.323" viewBox="0 0 20.189 15.323">
  <path id="Path_2376" data-name="Path 2376" d="M152,251.823h2.085v4.171H152Zm8.689.7h-.348a.348.348,0,0,0,0,.7.348.348,0,1,1,0,.7.348.348,0,0,0,0,.7.348.348,0,1,1,0,.7.348.348,0,0,0,0,.7.348.348,0,1,1,0,.7H156.35a2.533,2.533,0,0,1-1.409-.427l-.16-.107v-4.473a3.314,3.314,0,0,0,1.607-2.391l.085-.6h.394a.7.7,0,0,1,.7.7v2.085a.348.348,0,0,0,.348.348h2.78a.348.348,0,0,1,0,.7Z" transform="translate(-146.408 -241.366)" fill="currentColor"/>
  <path id="Path_2377" data-name="Path 2377" d="M202.7,80.185l.45,1.385h1.456a.27.27,0,0,1,.159.488l-1.178.856.45,1.385a.27.27,0,0,1-.415.3l-1.178-.856-1.178.856a.27.27,0,0,1-.415-.3l.45-1.385-1.178-.856a.27.27,0,0,1,.159-.488h1.456l.45-1.385a.27.27,0,0,1,.513,0Z" transform="translate(-192.334 -79.998)" fill="currentColor"/>
  <path id="Path_2378" data-name="Path 2378" d="M90.131,139.256l.356,1.1H91.64a.214.214,0,0,1,.126.387l-.933.678.356,1.1a.214.214,0,0,1-.329.239l-.933-.678-.933.678a.214.214,0,0,1-.329-.239l.356-1.1-.933-.678a.214.214,0,0,1,.126-.387h1.153l.356-1.1a.214.214,0,0,1,.407,0Z" transform="translate(-85.189 -136.539)" fill="currentColor"/>
  <path id="Path_2379" data-name="Path 2379" d="M25.413,243.278l.356,1.1h1.154a.214.214,0,0,1,.126.387l-.933.678.356,1.1a.214.214,0,0,1-.329.239l-.933-.678-.933.678a.214.214,0,0,1-.329-.239l.356-1.1-.933-.678a.214.214,0,0,1,.126-.387H24.65l.356-1.1a.214.214,0,0,1,.407,0Z" transform="translate(-23.283 -236.043)" fill="currentColor"/>
  <path id="Path_2380" data-name="Path 2380" d="M401.413,243.272l.356,1.1h1.154a.214.214,0,0,1,.126.387l-.933.678.356,1.1a.214.214,0,0,1-.329.239l-.933-.678-.933.678a.214.214,0,0,1-.329-.239l.356-1.1-.933-.678a.214.214,0,0,1,.126-.387h1.153l.356-1.1a.214.214,0,0,1,.407,0Z" transform="translate(-382.948 -236.037)" fill="currentColor"/>
  <path id="Path_2381" data-name="Path 2381" d="M337.413,139.272l.356,1.1h1.154a.214.214,0,0,1,.126.387l-.933.678.356,1.1a.214.214,0,0,1-.329.239l-.933-.678-.933.678a.214.214,0,0,1-.329-.239l.356-1.1-.933-.678a.214.214,0,0,1,.126-.387h1.153l.356-1.1a.214.214,0,0,1,.407,0Z" transform="translate(-321.729 -136.555)" fill="currentColor"/>
</svg>
