<svg id="mail_2_" data-name="mail (2)" xmlns="http://www.w3.org/2000/svg" width="19.097" height="17.561" viewBox="0 0 19.097 17.561">
  <g id="Group_1592" data-name="Group 1592" transform="translate(0 8.498)">
    <g id="Group_1591" data-name="Group 1591">
      <path id="Path_2364" data-name="Path 2364" d="M1.918,182.723l-1.1-.612L0,181.662v6.08a3.509,3.509,0,0,0,.367,1.591l.694-.49,5.06-3.754Z" transform="translate(0 -181.662)" fill="currentColor"/>
    </g>
  </g>
  <g id="Group_1594" data-name="Group 1594" transform="translate(0.898 10.579)">
    <g id="Group_1593" data-name="Group 1593">
      <path id="Path_2365" data-name="Path 2365" d="M34.208,228.216l-5.55-4.121-2.408-1.632-2.408,1.673-5.55,4.081-.694.49a3.065,3.065,0,0,0,2.122.734H32.78a3.065,3.065,0,0,0,2.122-.734Z" transform="translate(-17.6 -222.462)" fill="currentColor"/>
    </g>
  </g>
  <g id="Group_1596" data-name="Group 1596" transform="translate(5.958 0)">
    <g id="Group_1595" data-name="Group 1595">
      <path id="Path_2366" data-name="Path 2366" d="M120.636,15.154a.429.429,0,0,0-.53,0l-3.305,2.53h7.141Z" transform="translate(-116.8 -15.062)" fill="currentColor"/>
    </g>
  </g>
  <g id="Group_1598" data-name="Group 1598" transform="translate(0 5.927)">
    <g id="Group_1597" data-name="Group 1597" transform="translate(0)">
      <path id="Path_2367" data-name="Path 2367" d="M.2,132.445a.854.854,0,0,0-.163.245.368.368,0,0,0-.041.2l.816.449.857.49v-2.571Z" transform="translate(0 -131.262)" fill="currentColor"/>
    </g>
  </g>
  <g id="Group_1600" data-name="Group 1600" transform="translate(12.935 8.498)">
    <g id="Group_1599" data-name="Group 1599">
      <path id="Path_2368" data-name="Path 2368" d="M258.9,182.152l-5.3,2.938,5.06,3.713.694.49a3.509,3.509,0,0,0,.367-1.591v-6.039Z" transform="translate(-253.6 -181.662)" fill="currentColor"/>
    </g>
  </g>
  <g id="Group_1602" data-name="Group 1602" transform="translate(2.571 3.479)">
    <g id="Group_1601" data-name="Group 1601">
      <path id="Path_2369" data-name="Path 2369" d="M50.4,83.262V88.73l4.325,2.448,2.448-1.673a.519.519,0,0,1,.49,0l2.408,1.673L64.4,88.73V83.262Z" transform="translate(-50.4 -83.262)" fill="currentColor"/>
    </g>
  </g>
  <g id="Group_1604" data-name="Group 1604" transform="translate(17.424 5.927)">
    <g id="Group_1603" data-name="Group 1603">
      <path id="Path_2370" data-name="Path 2370" d="M343.232,132.649c0-.082-.082-.163-.163-.245l-1.469-1.143v2.53l.857-.49.816-.408C343.273,132.813,343.232,132.731,343.232,132.649Z" transform="translate(-341.6 -131.262)" fill="currentColor"/>
    </g>
  </g>
</svg>
