<svg xmlns="http://www.w3.org/2000/svg" width="18.097" height="18.097" viewBox="0 0 18.097 18.097">
  <g id="share_3_" data-name="share (3)" transform="translate(0)">
    <path id="Path_2382" data-name="Path 2382" d="M141.418,5.263l-4.9-5.09a.566.566,0,0,0-.973.393V3.017h-.188A7.36,7.36,0,0,0,128,10.369V11.5a.558.558,0,0,0,.44.541.505.505,0,0,0,.124.015.585.585,0,0,0,.517-.322A6.185,6.185,0,0,1,134.648,8.3h.9v2.451a.566.566,0,0,0,.973.392l4.9-5.09a.566.566,0,0,0,0-.785Zm0,0" transform="translate(-123.479 -0.001)" fill="currentColor"/>
    <path id="Path_2383" data-name="Path 2383" d="M15.839,100.421H2.266A2.265,2.265,0,0,1,0,98.159V87.6A2.265,2.265,0,0,1,2.266,85.34H4.528a.754.754,0,1,1,0,1.508H2.266a.754.754,0,0,0-.754.754V98.159a.754.754,0,0,0,.754.754H15.839a.754.754,0,0,0,.754-.754V92.126a.754.754,0,1,1,1.508,0v6.032a2.265,2.265,0,0,1-2.262,2.262Zm0,0" transform="translate(-0.004 -82.324)" fill="currentColor"/>
  </g>
</svg>
